<?xml version="1.0" encoding="UTF-8"?>
<!DOCTYPE svg PUBLIC "-//W3C//DTD SVG 1.0//EN" "http://www.w3.org/TR/2001/REC-SVG-20010904/DTD/svg10.dtd">
<!-- Creator: CorelDRAW 2020 (64-Bit) -->
<svg xmlns="http://www.w3.org/2000/svg" xml:space="preserve" width="300mm" height="300mm" version="1.0" style="shape-rendering:geometricPrecision; text-rendering:geometricPrecision; image-rendering:optimizeQuality; fill-rule:evenodd; clip-rule:evenodd"
viewBox="0 0 30000 30000"
 xmlns:xlink="http://www.w3.org/1999/xlink"
 xmlns:xodm="http://www.corel.com/coreldraw/odm/2003">
 <defs>
  <style type="text/css">
   <![CDATA[
    .str0 {stroke:#9782C7;stroke-width:141.11;stroke-miterlimit:22.9256;stroke-opacity:0.101961}
    .fil0 {fill:none;fill-rule:nonzero}
   ]]>
  </style>
 </defs>
 <g id="Layer_x0020_1">
  <metadata id="CorelCorpID_0Corel-Layer"/>
  <path class="fil0 str0" d="M3796.93 14459.65l0 1228.14 -4642.61 0 0 -1228.14 4642.61 0zm6685.03 2446.77c0,-429.39 81.12,-806.24 243.29,-1130.75 162.33,-324.5 383.18,-574.05 662.71,-748.85 279.57,-174.64 591.6,-262.02 936.01,-262.02 274.62,0 525.45,57.39 752.56,172.18 227.16,114.9 405.55,269.57 535.39,464.35l0 -1939.46 1.8 0 0 -4850.42 1280.49 0 0 5541.21 -1.79 0 0 4850.35 -1280.5 0 0 -598.99c-119.83,199.6 -290.76,359.41 -512.97,479.17 -222.07,119.82 -480.39,179.73 -774.98,179.73 -344.41,0 -656.44,-88.6 -936.01,-265.76 -279.53,-177.27 -500.38,-429.33 -662.71,-756.35 -162.17,-327.01 -243.29,-705.12 -243.29,-1134.39zm-3959.46 -2693.85c-364.39,0 -688.9,-62.38 -973.4,-187.18 -284.56,-124.78 -509.21,-295.86 -673.95,-512.95 -164.79,-217.1 -257.1,-460.55 -277.07,-730.11l1265.5 0c14.95,144.81 82.35,262.07 202.18,351.91 119.82,89.88 267.11,134.81 441.75,134.81 159.76,0 283.31,-31.15 370.7,-93.58 87.37,-62.33 131.07,-143.55 131.07,-243.4 0,-119.76 -62.43,-208.37 -187.23,-265.75 -124.8,-57.41 -326.96,-121.06 -606.55,-190.93 -299.49,-69.88 -549.16,-143.59 -748.74,-220.96 -199.7,-77.37 -372,-199.7 -516.7,-366.86 -144.79,-167.26 -217.21,-393.13 -217.21,-677.75 0,-239.59 66.17,-457.91 198.47,-655.16 132.29,-197.24 326.95,-353.13 584.05,-468.04 257.1,-114.78 562.85,-172.18 917.23,-172.18 524.21,0 937.32,129.84 1239.38,389.39 302.02,259.56 475.44,603.97 520.4,1033.36l-1183.1 0c-20.03,-144.78 -83.69,-259.67 -190.97,-344.47 -107.36,-84.92 -248.32,-127.25 -423.09,-127.25 -149.74,0 -264.52,28.63 -344.41,86.02 -79.92,57.4 -119.81,136.05 -119.81,235.9 0,119.83 63.65,209.65 190.91,269.57 127.27,59.97 325.75,119.83 595.31,179.68 309.46,79.87 561.63,158.52 756.29,235.89 194.67,77.42 365.67,202.17 512.97,374.45 147.22,172.23 223.41,403.04 228.34,692.66 0,244.6 -68.65,462.94 -205.92,655.14 -137.32,192.2 -334.45,343.24 -591.55,453.1 -257.1,109.75 -555.36,164.69 -894.85,164.69zm6417.37 -2216.47c0,119.83 -7.5,244.63 -22.49,374.34l-2897.87 0c19.99,259.67 103.56,458.09 250.78,595.31 147.29,137.39 328.25,206.02 542.89,206.02 319.53,0 541.71,-134.81 666.51,-404.39l1362.79 0c-69.87,274.57 -195.89,521.64 -378.15,741.36 -182.2,219.57 -410.59,391.87 -685.2,516.65 -274.5,124.8 -581.49,187.18 -921.02,187.18 -409.32,0 -773.7,-87.32 -1093.23,-262.07 -319.47,-174.76 -569.07,-424.36 -748.74,-748.87 -179.72,-324.37 -269.63,-703.82 -269.63,-1138.12 0,-434.26 88.66,-813.69 265.82,-1138.19 177.23,-324.49 425.59,-574.1 745.11,-748.85 319.48,-174.64 686.38,-262.03 1100.67,-262.03 404.37,0 763.78,84.86 1078.27,254.58 314.54,169.73 560.39,411.84 737.62,726.32 177.26,314.48 265.87,681.45 265.87,1100.76zm-1310.43 -336.97c0,-219.61 -74.95,-394.37 -224.65,-524.09 -149.74,-129.84 -336.97,-194.79 -561.62,-194.79 -214.64,0 -395.6,62.43 -542.9,187.23 -147.22,124.8 -238.35,302.07 -273.27,531.65l1602.44 0zm6289.95 -621.48l-688.89 0 0 3115.01 -1280.5 0 0 -3115.01 -464.29 0 0 -1063.36 464.29 0 0 -119.76c0,-514.19 147.3,-904.86 441.81,-1171.91 294.46,-267.06 726.36,-400.59 1295.37,-400.59 94.93,0 164.8,2.47 209.72,7.5l0 1085.72c-244.61,-14.94 -416.87,20.02 -516.71,104.84 -99.85,84.91 -149.69,237.18 -149.69,456.79l0 37.41 688.89 0 0 1063.36zm-4307.47 5876.21c0,-319.46 -88.61,-571.63 -265.82,-756.29 -177.16,-184.77 -393.14,-277.07 -647.66,-277.07 -254.64,0 -470.51,91.08 -647.79,273.37 -177.2,182.2 -265.75,433.03 -265.75,752.55 0,319.47 88.55,572.77 265.75,759.99 177.28,187.22 393.15,280.82 647.79,280.82 254.52,0 470.5,-92.37 647.66,-277.12 177.21,-184.65 265.82,-436.73 265.82,-756.25zm1954.46 -7.44c0,-429.39 81.05,-806.24 243.27,-1130.75 162.28,-324.5 383.12,-574.05 662.71,-748.85 279.59,-174.64 591.61,-262.02 935.96,-262.02 294.64,0 552.97,59.85 775.04,179.67 222.19,119.88 393.15,277.14 512.96,471.79l0 -591.61 1280.5 0 0 4178.36 -1280.5 0 0 -591.55c-124.8,194.72 -298.22,351.97 -520.4,471.73 -222.12,119.82 -480.52,179.73 -775.03,179.73 -339.44,0 -648.94,-88.6 -928.53,-265.76 -279.59,-177.27 -500.43,-429.33 -662.71,-756.35 -162.22,-327.01 -243.27,-705.12 -243.27,-1134.39zm3129.94 7.44c0,-319.46 -88.6,-571.63 -265.88,-756.29 -177.11,-184.77 -393.07,-277.07 -647.65,-277.07 -254.58,0 -470.51,91.08 -647.72,273.37 -177.27,182.2 -265.77,433.03 -265.77,752.55 0,319.47 88.5,572.77 265.77,759.99 177.21,187.22 393.14,280.82 647.72,280.82 254.58,0 470.54,-92.37 647.65,-277.12 177.28,-184.65 265.88,-436.73 265.88,-756.25zm2853.01 -2523.45c-224.67,0 -408.19,-66.19 -550.39,-198.48 -142.32,-132.29 -213.41,-295.75 -213.41,-490.47 0,-199.65 71.09,-365.62 213.41,-497.98 142.2,-132.28 325.72,-198.35 550.39,-198.35 219.61,0 400.52,66.07 542.83,198.35 142.3,132.36 213.4,298.33 213.4,497.98 0,194.72 -71.1,358.18 -213.4,490.47 -142.31,132.29 -323.22,198.48 -542.83,198.48zm636.4 434.24l0 4178.36 -1280.42 0 0 -4178.36 1280.42 0zm2208.93 -1362.78l0 5541.14 -1280.44 0 0 -5541.14 1280.44 0zm5196.73 1362.78l-2620.8 6162.69 -1377.88 0 958.57 -2126.57 -1699.88 -4036.12 1430.31 0 965.9 2613.42 958.5 -2613.42 1385.28 0z"/>
 </g>
</svg>
