<?xml version="1.0" encoding="UTF-8"?>
<!DOCTYPE svg PUBLIC "-//W3C//DTD SVG 1.0//EN" "http://www.w3.org/TR/2001/REC-SVG-20010904/DTD/svg10.dtd">
<!-- Creator: CorelDRAW 2020 (64-Bit) -->
<svg xmlns="http://www.w3.org/2000/svg" xml:space="preserve" width="300mm" height="300mm" version="1.0" style="shape-rendering:geometricPrecision; text-rendering:geometricPrecision; image-rendering:optimizeQuality; fill-rule:evenodd; clip-rule:evenodd"
viewBox="0 0 30000 30000"
 xmlns:xlink="http://www.w3.org/1999/xlink"
 xmlns:xodm="http://www.corel.com/coreldraw/odm/2003">
 <defs>
  <style type="text/css">
   <![CDATA[
    .fil0 {fill:#0E3770;fill-rule:nonzero;fill-opacity:0.101961}
   ]]>
  </style>
 </defs>
 <g id="Layer_x0020_1">
  <metadata id="CorelCorpID_0Corel-Layer"/>
  <path class="fil0" d="M3148.28 15295.19c-242.12,0 -434.31,-65.07 -576.56,-195.22 -142.25,-130.14 -213.37,-295.09 -213.37,-494.84 0,-278.44 104.42,-514.51 313.25,-708.21 208.83,-193.7 467.6,-290.55 776.31,-290.55 236.07,0 423.72,65.07 562.94,195.21 139.22,130.14 208.84,298.11 208.84,503.92 0,272.39 -104.42,505.44 -313.25,699.14 -208.84,193.7 -461.55,290.55 -758.16,290.55zm4158.5 -4421.81c193.7,-236.07 437.34,-426.75 730.91,-572.02 293.58,-145.28 618.93,-217.91 976.07,-217.91 544.78,0 985.15,178.56 1321.09,535.7 335.95,357.13 503.93,841.38 503.93,1452.75 0,187.64 -18.16,390.42 -54.48,608.34 -90.8,520.57 -269.37,979.09 -535.7,1375.57 -266.34,396.48 -587.16,702.16 -962.45,917.05 -375.29,214.88 -771.77,322.33 -1189.44,322.33 -351.08,0 -647.68,-72.64 -889.81,-217.92 -242.12,-145.27 -420.69,-332.92 -535.7,-562.94l-553.86 3123.42 -1552.63 0 1316.56 -7481.67 1552.62 0 -127.11 717.3zm1906.73 1806.86c18.16,-102.91 27.24,-196.73 27.24,-281.47 0,-302.66 -86.26,-538.73 -258.77,-708.22 -172.51,-169.49 -391.94,-254.23 -658.28,-254.23 -308.71,0 -590.18,111.98 -844.41,335.95 -254.23,223.96 -417.66,529.65 -490.3,917.05 -18.16,108.95 -27.24,208.83 -27.24,299.63 0,296.6 84.74,529.64 254.23,699.13 169.49,169.49 387.4,254.23 653.74,254.23 308.71,0 591.69,-113.49 848.95,-340.48 257.26,-227 422.2,-534.19 494.84,-921.59zm3995.07 -2524.16l617.42 3168.81 1725.14 -3168.81 1679.74 0 -4494.45 7472.59 -1670.66 0 1616.18 -2578.63 -1198.51 -4893.96 1725.14 0z"/>
 </g>
</svg>
