<?xml version="1.0" encoding="UTF-8"?>
<!DOCTYPE svg PUBLIC "-//W3C//DTD SVG 1.0//EN" "http://www.w3.org/TR/2001/REC-SVG-20010904/DTD/svg10.dtd">
<!-- Creator: CorelDRAW 2020 (64-Bit) -->
<svg xmlns="http://www.w3.org/2000/svg" xml:space="preserve" width="300mm" height="300mm" version="1.0" style="shape-rendering:geometricPrecision; text-rendering:geometricPrecision; image-rendering:optimizeQuality; fill-rule:evenodd; clip-rule:evenodd"
viewBox="0 0 30000 30000"
 xmlns:xlink="http://www.w3.org/1999/xlink"
 xmlns:xodm="http://www.corel.com/coreldraw/odm/2003">
 <defs>
  <style type="text/css">
   <![CDATA[
    .fil1 {fill:#0E3770}
    .fil0 {fill:black;fill-rule:nonzero}
   ]]>
  </style>
 </defs>
 <g id="Layer_x0020_1">
  <metadata id="CorelCorpID_0Corel-Layer"/>
  <g id="_1869176116064">
   <path class="fil0" d="M8674.96 14331.06c-278.53,0 -526.53,-47.7 -744.01,-143.08 -217.48,-95.39 -389.17,-226.07 -515.08,-392.04 -125.91,-165.97 -196.5,-351.97 -211.76,-558.01l967.21 0c11.45,110.65 62.96,200.31 154.53,268.99 91.57,68.68 204.12,103.02 337.66,103.02 122.1,0 216.53,-23.85 283.3,-71.54 66.77,-47.69 100.16,-109.69 100.16,-186 0,-91.57 -47.7,-159.3 -143.08,-203.18 -95.39,-43.87 -249.91,-92.52 -463.58,-145.94 -228.92,-53.41 -419.7,-109.69 -572.31,-168.83 -152.62,-59.14 -284.25,-152.62 -394.9,-280.43 -110.65,-127.82 -165.97,-300.47 -165.97,-517.95 0,-183.14 50.55,-350.06 151.66,-500.77 101.11,-150.71 249.91,-269.95 446.41,-357.7 196.49,-87.76 430.19,-131.63 701.08,-131.63 400.62,0 716.35,99.2 947.18,297.6 230.84,198.4 363.42,461.67 397.76,789.8l-904.25 0c-15.27,-110.65 -63.91,-198.41 -145.95,-263.27 -82.03,-64.86 -189.81,-97.29 -323.35,-97.29 -114.47,0 -202.22,21.94 -263.27,65.81 -61.05,43.88 -91.57,103.97 -91.57,180.28 0,91.57 48.65,160.25 145.94,206.04 97.3,45.78 248.96,91.57 454.99,137.35 236.56,61.05 429.24,121.14 578.04,180.28 148.8,59.14 279.48,154.53 392.04,286.16 112.55,131.63 170.74,308.09 174.55,529.39 0,186.96 -52.46,353.88 -157.38,500.78 -104.93,146.89 -255.64,262.31 -452.13,346.25 -196.5,83.94 -424.47,125.91 -683.92,125.91zm-2083.23 188.86l0 938.6 -3548.35 0 0 -938.6 3548.35 0zm5109.48 1870.05c0,-328.13 62,-616.19 186,-864.2 124,-248 292.84,-438.77 506.5,-572.31 213.66,-133.54 452.13,-200.31 715.39,-200.31 209.85,0 401.58,43.87 575.18,131.63 173.6,87.75 310,206.03 409.2,354.83l0 -1482.29 1.31 0 0 -3707.18 978.65 0 0 4235.13 -1.3 0 0 3707.18 -978.66 0 0 -457.85c-91.57,152.62 -222.24,274.71 -392.03,366.28 -169.79,91.57 -367.24,137.36 -592.35,137.36 -263.26,0 -501.73,-67.73 -715.39,-203.18 -213.66,-135.44 -382.5,-328.12 -506.5,-578.03 -124,-249.92 -186,-538.93 -186,-867.06zm1878.49 -3752.97c0,91.57 -5.72,186.96 -17.17,286.16l-2214.86 0c15.27,198.4 79.17,350.07 191.73,454.99 112.55,104.93 250.86,157.39 414.93,157.39 244.19,0 413.97,-103.02 509.36,-309.05l1041.61 0c-53.41,209.85 -149.75,398.71 -289.02,566.59 -139.26,167.88 -313.82,299.51 -523.67,394.9 -209.84,95.38 -444.49,143.08 -703.94,143.08 -312.87,0 -591.4,-66.77 -835.58,-200.32 -244.19,-133.54 -434.96,-324.31 -572.32,-572.31 -137.35,-248 -206.03,-537.98 -206.03,-869.92 0,-331.94 67.72,-621.91 203.17,-869.92 135.45,-248 325.27,-438.77 569.45,-572.31 244.19,-133.54 524.63,-200.31 841.31,-200.31 309.05,0 583.76,64.86 824.13,194.58 240.37,129.73 428.28,314.78 563.73,555.15 135.45,240.37 203.17,520.81 203.17,841.3zm-1001.55 -257.54c0,-167.88 -57.23,-301.42 -171.69,-400.62 -114.47,-99.2 -257.55,-148.8 -429.24,-148.8 -164.06,0 -302.37,47.69 -414.93,143.08 -112.55,95.38 -182.19,230.83 -208.89,406.34l1224.75 0zm4807.45 -475.02l-526.53 0 0 2380.83 -978.66 0 0 -2380.83 -354.84 0 0 -812.69 354.84 0 0 -91.57c0,-392.99 112.55,-691.55 337.66,-895.67 225.12,-204.13 555.15,-306.19 990.11,-306.19 72.49,0 125.91,1.91 160.25,5.72l0 829.86c-186.96,-11.45 -318.59,15.26 -394.9,80.12 -76.31,64.87 -114.46,181.24 -114.46,349.12l0 28.61 526.53 0 0 812.69zm-3292.12 4491.25c0,-244.19 -67.72,-436.87 -203.17,-578.04 -135.44,-141.17 -300.46,-211.75 -495.05,-211.75 -194.59,0 -359.6,69.63 -495.05,208.89 -135.45,139.26 -203.17,330.99 -203.17,575.18 0,244.19 67.72,437.82 203.17,580.9 135.45,143.08 300.46,214.62 495.05,214.62 194.59,0 359.61,-70.59 495.05,-211.76 135.45,-141.17 203.17,-333.85 203.17,-578.04zm1493.75 -5.72c0,-328.13 62,-616.19 186,-864.2 124,-248 292.84,-438.77 506.5,-572.31 213.66,-133.54 452.13,-200.31 715.39,-200.31 225.11,0 422.56,45.78 592.35,137.35 169.79,91.57 300.46,211.76 392.03,360.56l0 -452.13 978.66 0 0 3193.52 -978.66 0 0 -452.13c-95.38,148.8 -227.97,268.99 -397.75,360.56 -169.79,91.57 -367.24,137.36 -592.35,137.36 -259.45,0 -496.01,-67.73 -709.67,-203.18 -213.66,-135.44 -382.5,-328.12 -506.5,-578.03 -124,-249.92 -186,-538.93 -186,-867.06zm2392.27 5.72c0,-244.19 -67.72,-436.87 -203.17,-578.04 -135.44,-141.17 -300.46,-211.75 -495.05,-211.75 -194.59,0 -359.6,69.63 -495.05,208.89 -135.45,139.26 -203.17,330.99 -203.17,575.18 0,244.19 67.72,437.82 203.17,580.9 135.45,143.08 300.46,214.62 495.05,214.62 194.59,0 359.61,-70.59 495.05,-211.76 135.45,-141.17 203.17,-333.85 203.17,-578.04zm2180.53 -1928.7c-171.7,0 -311.92,-50.55 -420.66,-151.66 -108.74,-101.11 -163.11,-226.07 -163.11,-374.87 0,-152.62 54.37,-279.48 163.11,-380.59 108.74,-101.11 248.96,-151.66 420.66,-151.66 167.88,0 306.18,50.55 414.92,151.66 108.74,101.11 163.11,227.97 163.11,380.59 0,148.8 -54.37,273.76 -163.11,374.87 -108.74,101.11 -247.04,151.66 -414.92,151.66zm486.46 331.94l0 3193.52 -978.65 0 0 -3193.52 978.65 0zm1688.33 -1041.61l0 4235.13 -978.65 0 0 -4235.13 978.65 0zm3971.87 1041.61l-2003.1 4710.15 -1053.06 0 732.56 -1625.37 -1299.15 -3084.78 1093.12 0 738.28 1997.38 732.57 -1997.38 1058.78 0z"/>
   <rect class="fil1" x="3043.38" y="14519.92" width="3548.35" height="938.6"/>
  </g>
 </g>
</svg>
